<svg xmlns="http://www.w3.org/2000/svg" xmlns:xlink="http://www.w3.org/1999/xlink" viewBox="0 0 64 75" version="1.1" x="0px" y="0px"><title>viking_boat</title><desc>Created with Sketch.</desc><g stroke="none" stroke-width="1" fill="none" fill-rule="evenodd"><g transform="translate(-298.000000, -300.000000)" fill="#000000"><g transform="translate(297.000000, 300.000000)"><path d="M55.2943694,46.7557217 C56.6018659,46.2208445 57.9677988,45.5362021 59.3672998,44.7364852 C60.5641279,44.0525817 60.4763304,44.0648412 60.4763304,44.0648412 L60.1323933,46.8163379 C59.6281264,50.8504736 55.8402924,54.6119368 51.8567438,55.0284194 C51.5654066,55.077151 51.272893,55.1245353 50.7913218,55.1884855 C49.9585992,55.2990668 48.9065061,55.4106299 47.6200342,55.5153866 C43.9059028,55.8178262 39.0726407,56 33,56 C26.9273593,56 22.0940972,55.8178262 18.3799658,55.5153866 C17.0934939,55.4106299 16.0414008,55.2990668 15.2086782,55.1884855 C14.727107,55.1245353 14.4345934,55.077151 14.3161379,55.0541737 C10.1427731,54.5727468 6.3703809,50.8385317 5.86760667,46.8163379 L5.54311312,44.0947997 C5.54311312,44.0947997 6.26538198,44.5265141 6.63284988,44.7364926 C8.03209984,45.5360522 9.39778331,46.220584 10.7050412,46.7554161 C11.3085005,47.0023064 11.8954508,47.2154534 12.4649547,47.3922897 C13.5198403,47.7198415 14.6405272,47.130221 14.968079,46.0753354 C15.2956308,45.0204498 14.7060103,43.8997629 13.6511247,43.5722111 C13.1977507,43.4314342 12.7194919,43.2577578 12.2196811,43.0532726 C11.0892774,42.590796 9.87528348,41.9822967 8.61738347,41.2635074 C7.51731751,40.6349076 6.44685233,39.9588398 5.45191225,39.2830513 C5.10438178,39.0469998 4.79187069,38.8283892 4.51991534,38.6331459 C4.36011337,38.5184203 4.25163961,38.4387282 4.19997013,38.3999776 C2.78801023,37.3410489 0.796532222,38.4967733 1.01544425,40.2480695 L1.89849517,47.3124768 C2.63018866,53.1660247 7.85511768,58.3380769 13.7089853,59.0047328 C14.2628602,59.1183963 15.7225249,59.3122323 18.0553226,59.5021907 C21.881636,59.8137652 26.8226407,60 33,60 C39.1773593,60 44.118364,59.8137652 47.9446774,59.5021907 C50.2774751,59.3122323 51.7371398,59.1183963 52.4455609,58.9809809 C58.1171566,58.3956914 63.3678732,53.1815302 64.1015048,47.3124768 L64.9845558,40.2480695 C65.2034704,38.4967525 63.2119484,37.3410316 61.7999949,38.4000038 C61.7483295,38.4387532 61.6398621,38.5184439 61.4800684,38.6331683 C61.2081262,38.8284101 60.8956289,39.0470192 60.5481126,39.2830692 C59.5532121,39.9588541 58.4827813,40.6349183 57.3827403,41.2635148 C56.1246328,41.9824352 54.9104376,42.5910225 53.7798567,43.0535263 C53.3634854,43.2238575 52.9619237,43.3728656 52.577085,43.4993116 C51.5277081,43.8441041 50.9565297,44.9743018 51.3013222,46.0236787 C51.6461148,47.0730556 52.7763124,47.644234 53.8256893,47.2994415 C54.3035805,47.1424213 54.7933336,46.960688 55.2943694,46.7557217 Z"/><path d="M25,47 C25,43.1340068 21.8659932,40 18,40 C14.1340068,40 11,43.1340068 11,47 C11,50.8659932 14.1340068,54 18,54 C21.8659932,54 25,50.8659932 25,47 Z M15,47 C15,45.3431458 16.3431458,44 18,44 C19.6568542,44 21,45.3431458 21,47 C21,48.6568542 19.6568542,50 18,50 C16.3431458,50 15,48.6568542 15,47 Z"/><path d="M35,47 C35,43.1340068 31.8659932,40 28,40 C24.1340068,40 21,43.1340068 21,47 C21,50.8659932 24.1340068,54 28,54 C31.8659932,54 35,50.8659932 35,47 Z M25,47 C25,45.3431458 26.3431458,44 28,44 C29.6568542,44 31,45.3431458 31,47 C31,48.6568542 29.6568542,50 28,50 C26.3431458,50 25,48.6568542 25,47 Z"/><path d="M45,47 C45,43.1340068 41.8659932,40 38,40 C34.1340068,40 31,43.1340068 31,47 C31,50.8659932 34.1340068,54 38,54 C41.8659932,54 45,50.8659932 45,47 Z M35,47 C35,45.3431458 36.3431458,44 38,44 C39.6568542,44 41,45.3431458 41,47 C41,48.6568542 39.6568542,50 38,50 C36.3431458,50 35,48.6568542 35,47 Z"/><path d="M55,47 C55,43.1340068 51.8659932,40 48,40 C44.1340068,40 41,43.1340068 41,47 C41,50.8659932 44.1340068,54 48,54 C51.8659932,54 55,50.8659932 55,47 Z M45,47 C45,45.3431458 46.3431458,44 48,44 C49.6568542,44 51,45.3431458 51,47 C51,48.6568542 49.6568542,50 48,50 C46.3431458,50 45,48.6568542 45,47 Z"/><path d="M35,2 C35,0.8954305 34.1045695,0 33,0 C31.8954305,0 31,0.8954305 31,2 L31,42 C31,43.1045695 31.8954305,44 33,44 C34.1045695,44 35,43.1045695 35,42 L35,2 Z"/><path d="M20,20 C20,28.836556 27.163444,36 36,36 C37.1045695,36 38,35.1045695 38,34 C38,32.8954305 37.1045695,32 36,32 C29.372583,32 24,26.627417 24,20 C24,13.372583 29.372583,8 36,8 C37.1045695,8 38,7.1045695 38,6 C38,4.8954305 37.1045695,4 36,4 C27.163444,4 20,11.163444 20,20 Z"/></g></g></g></svg>